<svg width="53" height="54" viewBox="0 0 53 54" fill="none" xmlns="http://www.w3.org/2000/svg">
<path fill-rule="evenodd" clip-rule="evenodd" d="M0 27.2C0 12.5666 11.8667 0.699951 26.5 0.699951C41.1333 0.699951 53 12.5666 53 27.2C53 41.8333 41.1333 53.7 26.5 53.7C11.8667 53.7 0 41.8333 0 27.2ZM17.6943 43.7303H35.2583C39.531 43.7303 43.0072 40.2542 43.0072 35.9815V18.4174C43.0072 14.1447 39.531 10.6686 35.2583 10.6686H17.6943C13.4216 10.6686 9.94543 14.1447 9.94543 18.4174V35.9815C9.94543 40.2542 13.4216 43.7303 17.6943 43.7303ZM12.5284 18.4174C12.5284 15.569 14.8458 13.2515 17.6943 13.2515H35.2583C38.1068 13.2515 40.4242 15.569 40.4242 18.4174V35.9815C40.4242 38.83 38.1068 41.1474 35.2583 41.1474H17.6943C14.8458 41.1474 12.5284 38.83 12.5284 35.9815V18.4174ZM33.9668 18.0946C33.9668 17.203 34.6896 16.4802 35.5812 16.4802C36.4728 16.4802 37.1955 17.203 37.1955 18.0946C37.1955 18.9861 36.4728 19.7089 35.5812 19.7089C34.6896 19.7089 33.9668 18.9861 33.9668 18.0946ZM18.0817 27.1995C18.0817 31.8283 21.8475 35.5941 26.4763 35.5941C31.1051 35.5941 34.8709 31.8283 34.8709 27.1995C34.4115 16.0661 18.5428 16.0629 18.0817 27.1995ZM20.6647 27.1995C20.6647 23.9949 23.2718 21.3878 26.4763 21.3878C29.6808 21.3878 32.2879 23.9949 32.2879 27.1994C31.9698 34.9071 20.9839 34.9094 20.6647 27.1995Z" fill="white"/>
</svg>
