<svg width="53" height="53" viewBox="0 0 53 53" fill="none" xmlns="http://www.w3.org/2000/svg">
<path d="M26.5 0C11.8648 0 0 11.8634 0 26.5C0 41.1366 11.8648 53 26.5 53C41.1352 53 53 41.1352 53 26.5C53 11.8648 41.1366 0 26.5 0ZM38.1863 22.6945C37.4169 27.3718 36.6327 32.0454 35.8338 36.7153C35.7308 37.3255 35.5576 37.9217 35.3176 38.4921C34.8596 39.5535 34.1179 39.9119 33.0108 39.5535C32.3938 39.341 31.8083 39.0464 31.27 38.6775C28.8456 37.0654 26.4391 35.4242 24.0327 33.7858C23.6716 33.5507 23.3326 33.2835 23.0197 32.9873C22.3749 32.3535 22.3195 31.7626 22.9062 31.0707C23.4667 30.4176 24.0908 29.8184 24.7121 29.2206C26.7878 27.2251 28.8912 25.2435 30.9669 23.2508C31.2108 23.0312 31.4286 22.7841 31.616 22.5146C31.7087 22.3679 31.7543 22.0815 31.6672 21.9611C31.58 21.8407 31.3101 21.795 31.1316 21.8144C30.9478 21.8588 30.7765 21.9444 30.6307 22.0649C27.0549 24.4386 23.481 26.8123 19.9089 29.186C19.1575 29.6869 18.3867 30.1657 17.4609 30.2114C16.8432 30.2469 16.2236 30.1885 15.6232 30.0384C14.1605 29.6509 12.7172 29.186 11.2725 28.739C11.0095 28.6572 10.7583 28.5414 10.5253 28.3944C9.89841 28.0014 9.84721 27.4341 10.4187 26.9608C10.7227 26.7075 11.0615 26.4991 11.4248 26.3422C19.0523 23.0986 26.6868 19.8697 34.3282 16.6556C35.1405 16.3244 35.9805 16.066 36.8385 15.8834C38.1448 15.59 38.8464 16.2169 38.8298 17.8622C38.6443 19.271 38.4631 20.9869 38.1863 22.689V22.6945Z" fill="white"/>
</svg>
