<svg width="53" height="54" viewBox="0 0 53 54" fill="none" xmlns="http://www.w3.org/2000/svg">
<path d="M26.5 0.699951C11.8658 0.699951 0 12.5658 0 27.2C0 41.8341 11.8658 53.7 26.5 53.7C41.1342 53.7 53 41.8341 53 27.2C53 12.5658 41.1342 0.699951 26.5 0.699951ZM39.2354 20.6755C39.2531 20.9535 39.2531 21.2434 39.2531 21.5273C39.2531 30.2108 32.64 40.2133 20.5552 40.2133C16.8287 40.2133 13.3742 39.1309 10.464 37.2676C10.9963 37.3267 11.505 37.3504 12.0492 37.3504C15.1251 37.3504 17.9526 36.3093 20.2063 34.5466C17.3196 34.4875 14.8944 32.5946 14.0663 29.9919C15.0778 30.1398 15.9887 30.1398 17.0298 29.8736C15.5435 29.5716 14.2075 28.7644 13.2489 27.5891C12.2903 26.4137 11.7682 24.9428 11.7712 23.4261V23.3433C12.6407 23.8342 13.6641 24.1359 14.7347 24.1773C13.8347 23.5775 13.0965 22.7648 12.5858 21.8114C12.075 20.858 11.8074 19.7933 11.8067 18.7117C11.8067 17.4872 12.1261 16.3693 12.6999 15.3992C14.3496 17.4301 16.4083 19.0911 18.742 20.2743C21.0758 21.4574 23.6324 22.1363 26.2456 22.2667C25.317 17.8007 28.6531 14.1866 32.6636 14.1866C34.5565 14.1866 36.26 14.9792 37.4608 16.2569C38.9455 15.9789 40.3652 15.4228 41.631 14.6775C41.1401 16.1977 40.1108 17.4813 38.7444 18.2917C40.0694 18.1497 41.3471 17.783 42.5301 17.2684C41.6369 18.5815 40.519 19.7468 39.2354 20.6755Z" fill="white"/>
</svg>
