<svg width="54" height="54" viewBox="0 0 54 54" fill="none" xmlns="http://www.w3.org/2000/svg">
<path fill-rule="evenodd" clip-rule="evenodd" d="M53.2 27.0998C53.2 41.7905 41.2908 53.6998 26.6 53.6998C11.9092 53.6998 0 41.7905 0 27.0998C0 12.409 11.9092 0.499756 26.6 0.499756C41.2908 0.499756 53.2 12.409 53.2 27.0998ZM27.6771 38.7662H25.5893C25.5893 38.7662 20.9827 39.0435 16.9262 34.8201C12.5022 30.2135 8.59504 21.0725 8.59504 21.0725C8.59504 21.0725 8.36981 20.4731 8.61448 20.1834C8.8895 19.8577 9.63869 19.8368 9.63869 19.8368L14.6293 19.8041C14.6293 19.8041 15.0997 19.8828 15.4364 20.1298C15.7138 20.3337 15.8693 20.715 15.8693 20.715C15.8693 20.715 16.6758 22.7549 17.7442 24.6003C19.8291 28.2031 20.8002 28.9911 21.5081 28.6052C22.5394 28.0423 22.2303 23.5121 22.2303 23.5121C22.2303 23.5121 22.2492 21.8677 21.7111 21.1356C21.2943 20.568 20.5081 20.4025 20.161 20.356C19.8803 20.3186 20.3412 19.6666 20.9386 19.374C21.8367 18.934 23.4228 18.9089 25.2967 18.9283C26.7567 18.943 27.1768 19.034 27.7477 19.172C29.0722 19.4918 29.0309 20.5166 28.9418 22.7277C28.9152 23.3884 28.8843 24.155 28.8843 25.0404C28.8843 25.2396 28.8785 25.4519 28.8725 25.6703C28.8416 26.8027 28.8062 28.0992 29.5515 28.581C29.9336 28.8275 30.8687 28.618 33.2073 24.6468C34.3159 22.7648 35.1471 20.5519 35.1471 20.5519C35.1471 20.5519 35.3287 20.1573 35.6109 19.9881C35.8996 19.8155 36.2889 19.8686 36.2889 19.8686L41.5409 19.8359C41.5409 19.8359 43.1189 19.6476 43.3745 20.3598C43.6424 21.1076 42.7846 22.8535 40.639 25.7132C38.6014 28.429 37.6112 29.4272 37.7043 30.3114C37.7722 30.9559 38.4158 31.5399 39.6489 32.6844C42.2341 35.084 42.9231 36.344 43.0868 36.6434C43.1001 36.6677 43.1099 36.6856 43.117 36.6973C44.274 38.6158 41.8339 38.7662 41.8339 38.7662L37.1695 38.8311C37.1695 38.8311 36.1671 39.0298 34.8479 38.1237C34.1581 37.6502 33.4836 36.877 32.841 36.1403C31.8587 35.0141 30.9508 33.9732 30.1759 34.2189C28.8758 34.6314 28.9165 37.4328 28.9165 37.4328C28.9165 37.4328 28.926 38.0312 28.6297 38.3498C28.3077 38.6969 27.6771 38.7662 27.6771 38.7662Z" fill="white"/>
</svg>
