<svg width="199" height="202" viewBox="0 0 199 202" fill="none" xmlns="http://www.w3.org/2000/svg">
<path d="M113.927 33.524L139.236 9.97016L139.124 45.0598L139.121 45.7585L139.783 45.5351L172.246 34.5837L158.237 66.6096L157.963 67.2362L158.643 67.3073L192.655 70.8623L167.164 94.275L166.667 94.7318L167.249 95.0742L196.922 112.533L164.366 123.274L163.722 123.486L164.116 124.039L184.307 152.379L150.328 148.596L149.641 148.52L149.783 149.196L156.999 183.505L127.471 165.866L126.865 165.504L126.724 166.196L119.731 200.534L99.7449 172.093L99.3358 171.51L98.9267 172.093L78.941 200.534L71.9473 166.196L71.8066 165.504L71.201 165.866L41.6722 183.505L48.8887 149.196L49.031 148.52L48.3441 148.596L14.3646 152.379L34.556 124.039L34.9496 123.486L34.3054 123.274L1.7493 112.533L31.4231 95.0742L32.0051 94.7318L31.5078 94.275L6.0169 70.8623L40.0289 67.3073L40.7091 67.2362L40.435 66.6096L26.4259 34.5837L58.8882 45.5351L59.5502 45.7585L59.548 45.0598L59.436 9.97016L84.7446 33.524L85.2643 34.0076L85.5446 33.3554L99.3358 1.26629L113.127 33.3554L113.407 34.0076L113.927 33.524Z" fill="#0047FF" stroke="#0047FF"/>
</svg>
