<svg width="18" height="47" viewBox="0 0 18 47" fill="none" xmlns="http://www.w3.org/2000/svg">
<path d="M15.2308 6.15082H16.8V1.69976H11.7692C9.99423 1.69976 8.68326 2.31547 7.79829 3.34451C6.89386 4.39618 6.32308 6.01133 6.32308 8.18973V16.2992C6.32308 18.2286 5.8255 19.5193 4.92648 20.2758C4.0703 20.9963 3.10868 20.995 2.79015 20.9946C2.78284 20.9946 2.77586 20.9946 2.76923 20.9946H1.2V25.5855H2.76923C2.77544 25.5855 2.78194 25.5855 2.78873 25.5855C3.11087 25.5851 4.08386 25.584 4.94413 26.3369C5.83279 27.1146 6.32308 28.4347 6.32308 30.4207V32.2384V38.8098C6.32308 41.0656 6.89748 42.6737 7.79314 43.7015C8.66932 44.7069 9.97642 45.2998 11.7692 45.2998H16.8V41.1283H15.2308C14.1057 41.1283 13.0936 41.0043 12.3743 40.4761C11.521 39.8494 11.4 38.9263 11.4 38.2505V32.3782V29.7216C11.4 29.1162 11.3753 27.8836 11.1774 26.6399C11.0785 26.0183 10.9409 25.424 10.7559 24.9182C10.5668 24.4015 10.3551 24.052 10.1515 23.8483L9.27513 22.9719L10.1793 22.1243C10.7041 21.6323 11.0385 20.8171 11.2205 19.8448C11.3979 18.8973 11.4 17.9766 11.4 17.4177V9.02863C11.4 8.38004 11.541 7.50506 12.3464 6.87664C13.0562 6.3228 14.0592 6.15082 15.2308 6.15082Z" fill="#010101" stroke="white" stroke-width="2.4"/>
</svg>
