<svg width="60" height="60" viewBox="0 0 60 60" fill="none" xmlns="http://www.w3.org/2000/svg">
<g clip-path="url(#clip0_1646_699)" filter="url(#filter0_b_1646_699)">
<circle cx="30" cy="30.375" r="29.625" fill="white" fill-opacity="0.1"/>
<rect x="13" y="13" width="4" height="10" fill="#164FE2"/>
<rect x="13" y="47" width="4" height="10" transform="rotate(-90 13 47)" fill="#164FE2"/>
<rect x="47" y="47" width="4" height="10" transform="rotate(180 47 47)" fill="#164FE2"/>
<rect x="47" y="13" width="4" height="10" transform="rotate(90 47 13)" fill="#164FE2"/>
<rect x="13" y="17" width="4" height="10" transform="rotate(-90 13 17)" fill="#164FE2"/>
<rect x="17" y="47" width="4" height="10" transform="rotate(180 17 47)" fill="#164FE2"/>
<rect x="47" y="43" width="4" height="10" transform="rotate(90 47 43)" fill="#164FE2"/>
<rect x="43" y="13" width="4" height="10" fill="#164FE2"/>
</g>
<defs>
<filter id="filter0_b_1646_699" x="-10" y="-10" width="80" height="80" filterUnits="userSpaceOnUse" color-interpolation-filters="sRGB">
<feFlood flood-opacity="0" result="BackgroundImageFix"/>
<feGaussianBlur in="BackgroundImageFix" stdDeviation="5"/>
<feComposite in2="SourceAlpha" operator="in" result="effect1_backgroundBlur_1646_699"/>
<feBlend mode="normal" in="SourceGraphic" in2="effect1_backgroundBlur_1646_699" result="shape"/>
</filter>
<clipPath id="clip0_1646_699">
<rect width="60" height="60" fill="white"/>
</clipPath>
</defs>
</svg>
