<svg width="261" height="266" viewBox="0 0 261 266" fill="#0047FF" xmlns="http://www.w3.org/2000/svg">
<path d="M149.562 43.9265L183.075 12.7367L182.927 59.1967L182.925 59.8954L183.587 59.6721L226.569 45.1715L208.023 87.5696L207.749 88.1962L208.429 88.2673L253.458 92.9737L219.714 123.967L219.216 124.424L219.798 124.766L259.08 147.878L215.981 162.097L215.337 162.309L215.731 162.862L242.46 200.379L197.472 195.371L196.785 195.294L196.927 195.971L206.482 241.393L167.381 218.037L166.775 217.675L166.635 218.367L157.374 263.835L130.909 226.173L130.5 225.59L130.091 226.173L103.626 263.835L94.3653 218.367L94.2246 217.675L93.619 218.037L54.5185 241.393L64.0728 195.971L64.2151 195.294L63.5282 195.371L18.5398 200.379L45.2693 162.862L45.6629 162.309L45.0188 162.097L1.92 147.878L41.2018 124.766L41.7838 124.424L41.2865 123.967L7.54218 92.9737L52.5707 88.2673L53.2509 88.1962L52.9768 87.5696L34.4306 45.1715L77.413 59.6721L78.0751 59.8954L78.0729 59.1967L77.9246 12.7367L111.438 43.9265L111.958 44.4101L112.238 43.7579L130.5 1.26627L148.762 43.7579L149.042 44.4101L149.562 43.9265Z" fill="#0047FF" stroke="#0047FF"/>
</svg>
